<svg version="1" xmlns="http://www.w3.org/2000/svg" width="742.667" height="742.667" viewBox="0 0 557.000000 557.000000"><path d="M55 36.2c-5.2 1.5-7.8 6.8-5.5 11.2.8 1.4 1.2 2.6.9 2.6-.3 0 0 .9.6 2.1 1.1 2 1.9 5.1 2.4 9.5.3 2.2 3.9 8.5 6.3 10.9.8.8 1.5 3.1 1.6 5 .1 1.9.5 3.5 1 3.5.4 0 .7.8.7 1.9 0 1 .7 2.4 1.5 3.1.8.7 1.5 1.7 1.5 2.2 0 .5.9 1.7 1.9 2.6 1.1 1 2.4 3.4 3 5.4l.9 3.8-6-.3c-3.8-.2-6.3-.8-6.9-1.8-.8-1.2-1.3-5.1-1-7.1 0-.4-.9-2.6-2-4.8-2.1-4-5.1-6.5-6.3-5.3-.3.3-.6-1.3-.6-3.6s-.7-5.3-1.6-6.6c-.9-1.3-1.4-3-1.2-3.7.3-.7-.8-2.2-2.5-3.3-2.4-1.7-2.9-2.8-3.1-6.8-.1-3.1-.8-5.1-1.9-6-1-.7-1.9-2.4-2.1-3.9-.6-5.8-6.9-10.2-14.3-10-7.8.2-13.5 3.9-13.5 8.7C8.8 47.8 12 58 13 59c.3.3.6 1.4.8 2.5.2 1.1.4 2.7.5 3.5.3 1.5 3.3 6.6 6.4 10.8.9 1.3 1.8 3.7 1.9 5.3.2 1.7 1.1 4.2 2.1 5.7s2.2 3.4 2.8 4.3c.5.9 1.8 2.8 2.8 4.2 2 2.8 1.4 5.2-.9 4.3-.8-.3-1.4 0-1.4.7 0 .8-.4.6-1-.3-.5-.8-1-1-1-.4s-1.8 1-4.2.9c-2.4 0-4.7.2-5.3.4-.5.3-1.8.6-3 .7-4.9.6-8.5 2.9-7.2 4.8.1.2-.5 1.2-1.4 2.2-3.3 3.8-5 8.4-4.4 11.7.8 3.5 10.6 24 11.8 24.5.4.2.7.9.7 1.6 0 .7 1.1 2.9 2.4 4.9 1.3 1.9 2.2 3.8 1.9 4-.2.3.3 1.7 1.2 3.1 1 1.4 1.3 2.6.9 2.6-.5 0-.4.4.1.8.6.4 1.9 2.6 2.9 4.9 1.1 2.4 2.3 4.3 2.8 4.3s.7.3.4.8c-.2.4.9 2.6 2.5 5 1.6 2.3 2.9 4.6 2.9 5 0 .4 1.3 2.1 2.8 3.9 1.5 1.7 3.8 4.6 5.2 6.4 5.7 7.4 18.2 18.9 24.1 22.3 4.2 2.4 5.1 3.3 6.7 6.8.6 1.6 1.7 3.9 2.3 5.2.6 1.3.9 2.9.5 3.4-.3.6-.1 1.4.5 1.7.5.4.8 1.3.5 2-.2.7-.2 1.6.2 2 .4.4.8 1.1.8 1.6.1.5.3 1 .4 1.1.1.2.4 1.4.5 2.8.2 1.4.8 5.2 1.4 8.5.6 3.3 1.4 7.6 1.7 9.5.8 4.6 1.2 6.5 1.4 6.5.1 0 .4 1.1 1.4 6 .1.5.5 1.6 1 2.3.4.7.5 1.6.2 1.9-.3.3-.2 1.1.3 1.7.5.6 1.4 2.9 2.1 5.1 1.5 4.9 6.2 14.9 7.3 15.3.4.2.7 1 .7 1.8s.5 1.4 1 1.4c.6 0 1 .6 1 1.2 0 1.7 7.2 8.4 9.9 9.3 1.1.3 2.1 1.1 2.1 1.6s.7.9 1.5.9c1.8 0 5.9 7.6 5.1 9.6-.3.8-.1 1.4.4 1.4 1.2 0 .9 2.2-.5 3.2-.6.5-.5.8.3.8.7 0 1.2.8 1.1 1.7-.1 1 0 2.1.1 2.5.1.5.4 1.7.5 2.8.1 1.1.3 2.1.5 2.2.1.2.3 1 .5 1.8.3.8.6 2.2.8 3 .7 2.6 1.8 5.4 3.3 8.2.8 1.5 1.4 3 1.3 3.4-.3 1 5.4 9.4 6.4 9.4.6 0 .8.3.4.6-.9.9 11.6 14.4 13.3 14.4.5 0 1.5.6 2.3 1.4 1.8 1.8 18.2 9.6 20.2 9.6.8 0 1.5.3 1.6.7 0 .5.2 4.8.4 9.8.7 16.2 1.4 24.7 1.9 25.3.3.3.1 1.1-.5 1.9-.6.7-.8 1.3-.3 1.3s1 1.7 1 3.8c.2 4.9 1.1 13.9 1.8 18.2.3 1.9.8 5.1 1.1 7 1 6 1.2 7.4 2.4 12 .6 2.5 1.3 5.7 1.6 7.2.2 1.5.9 3.7 1.5 4.8.6 1.1.8 2 .4 2-.3 0-.1.6.5 1.4.6.7 1.2 2.5 1.3 4 .1 1.4.6 2.6 1 2.6s.7.3.6.7c-.1.5.3 1.8 1 2.9.6 1.2.9 2.4.6 2.6-.2.3.2 1.1 1.1 1.8.8.7 1.5 2.1 1.5 3.1 0 1.1.4 1.9.8 1.9.5 0 1.6 1.5 2.5 3.4.8 1.9 3.5 5.5 5.8 8l4.3 4.6H335l-.5-2.8c-.3-1.5-.8-4.7-1.1-7.2-.3-2.5-.7-5.9-.9-7.5-1.6-12.2-1.3-15.4 2.3-19.7 3.9-4.6 4.8-5.7 6.2-7.9.8-1.2 2.3-3.1 3.3-4.1.9-1 1.7-2 1.7-2.3 0-.3.8-1.5 1.8-2.5 1-1.1 4.6-6.6 8-12.3 3.3-5.6 7-10.7 8-11.4 2.1-1.2 5.9-8.4 6.7-12.4.3-1.3.7-3.5 1-4.9.3-1.4.7-3.6 1-5 .3-1.4.8-4.3 1.1-6.5.4-2.2 1.1-4.9 1.6-5.9 1-1.9 1.1-1.9 2.1 0 2.1 3.8 21.2 22.1 31 29.6 2.7 2 6.1 5.6 7.7 8 4 6 14.9 16.8 17 16.8.5 0 1.3.7 1.8 1.6.5.9 1.3 1.6 1.8 1.6s2 .5 3.4 1 3.3 1.2 4.3 1.4c.9.2 2.7.7 4 1 5.6 1.4 15.9 1 21.5-.8 9.1-3.1 18.8-11.6 23.2-20.3.8-1.7 1.9-3.3 2.5-3.7.5-.4.6-.8.1-.8s-.3-.7.4-1.5c.8-.9.9-1.5.2-1.5s-.6-.9.3-2.6c.9-1.8 1.2-5.3.9-11.3-.3-7.5-.9-12.6-1.4-12.6-.1 0-.3-1-.6-2.3-.7-3.8-6.2-14.5-8.9-17.4-1.4-1.5-2.5-3-2.5-3.3 0-.4-.9-1.8-2-3.2-1.7-2.2-1.8-3.5-1.3-13.1.8-14 .8-40.1 0-47.8-1.1-10.9-2.6-15.2-6.3-18.1-2.1-1.5-3.4-3.4-3.4-4.8 0-1.2-.3-2.5-.7-2.9-.4-.3-.8-1.2-.9-1.9-.1-.7-.8-2.6-1.5-4.2-.7-1.7-1.3-3.3-1.3-3.7-.1-.4-.9-1.7-1.8-2.8-1-1.1-1.8-2.4-1.8-2.8 0-.5-1.1-1.8-2.5-3s-2.5-1.9-2.5-1.6c0 .4-.7.1-1.5-.6s-2.2-1-3-.6c-.8.3-1.5.1-1.5-.5s-.3-.8-.7-.6c-.5.3-2.5.8-4.6 1.1-2.1.3-4.5 1.3-5.3 2.1-.8.8-2.1 1.8-2.8 2.2-.6.5-2.5 2.6-4.2 4.8-6.5 8.8-6.9 9-7.7 4.2-.4-1.7-1-5.7-1.5-8.8-.6-3.1-1.7-6.8-2.6-8.2-.9-1.3-1.9-3.5-2.1-4.7-.7-3.6-2.5-5-6.5-5-7.1 0-10.9 7.3-11 21-.1 10.8-.1 11-.7 11-.4 0-1.6-.9-2.7-1.9-2.6-2.4-9.3-6.3-17.4-10.1-6.7-3.2-6.7-3.3-2.8-8.3 1.3-1.7 1.8-1.8 5.3-.5 2.1.7 4 1.6 4.3 2 .7.9 3.4-1.3 4.7-3.7 2.3-4.4-.9-9.9-9.7-16.6-2.5-1.8-4.7-3.6-5-3.9-.5-.5-6.7-4.6-11.3-7.4-3.2-1.9-2.9-3.1 1-4.1 5.9-1.4 8-5.9 8.3-17.5.6-15.4.3-50.5-.4-64-1-19.1-1-20.6-.2-21.8.4-.7.3-1.2-.1-1.2-.5 0-.8-1.9-.8-4.3 0-2.3-.6-5.4-1.4-6.9-1.7-3.1-8.4-6.1-13.7-6.2-1.9-.1-3.4-.4-3.4-.8 0-.5-.9-.8-2-.8-4.1 0-16-5.8-16-7.9 0-1.8-3.4-6.6-4.7-6.7-.4 0-5-2.1-10-4.6-5.1-2.6-9.3-4.4-9.3-4.1 0 .3-1.1-.2-2.5-1.1-1.4-.9-2.5-1.4-2.5-1 0 .3-1.1-.1-2.5-1-1.3-.9-3.1-1.6-3.8-1.6-.8 0-2.8-.7-4.5-1.6-1.8-.8-5.1-1.8-7.5-2-8.5-.9-10.2-1.2-10.2-1.4 0-.2-3-.8-10.1-1.9-7.1-1.1-16.9-.4-25.1 1.8-2.1.6-6.2 1.2-9.1 1.5-5 .5-12.2 2.5-15.9 4.5-6.1 3.2-10.2 4.9-10.7 4.4-.3-.4-.6-.1-.6.6s-.4 1-.9.6c-.5-.3-1.2-.1-1.5.4-.4.5-3.6 2.5-7.2 4.3-7.2 3.6-13 8.4-12.9 10.8 0 .8-.6 1.4-1.2 1.3-.7-.2-1.3.1-1.3.6 0 .9-5.4 3.5-6.6 3.1-.4-.1-1 .2-1.3.7-.5.9-5.3 2.4-12.1 3.9-4 .9-4.4 1-7 2.2-3.5 1.4-5.8 4.6-6.9 9.1-.4 2.1-.8 17.8-.7 35 .1 26.2-.1 31.1-1.3 31.1-.8 0-1.1-.3-.8-.7.4-.3-.2-1.6-1.2-2.7-1.1-1.2-2.1-2.6-2.2-3.1-.4-2.4-1.8-5.2-3.2-6.3-1.5-1.3-1.5-2.9-.1-12.2.7-4.4.8-31.7.2-35-.6-3-1.3-4.8-4.3-11.7-1.9-4.3-2.7-5.1-4.4-4.6-1.4.3-2.1.1-2.1-.8 0-1.9-5.5-7.6-8-8.4-1.1-.3-2-1.1-2-1.7 0-.6-.3-.8-.7-.5-.3.4-1.7 0-3-.8-1.3-.9-2.3-1.3-2.3-1 0 .3-.9-.4-2-1.5s-2.8-2-3.7-2c-2.8-.1-5.3-2.5-5.3-5.1.1-6.4 1.1-14.2 2.2-16.2 1.2-2.3 1.4-3.1 2.2-10.7.3-2.5.8-6.5 1.2-9 1.4-10.7 1-15.8-1.2-17.9-1.2-1.1-2.5-1.7-2.8-1.4-.3.4-.6.2-.6-.3 0-1.1-8.2-1.1-12.6 0-1.9.5-3.7 1.9-4.5 3.5-.8 1.4-1.7 2.8-2.1 3.1-.6.5-1.5 4.5-1.7 7.7-.1.9-.8 1-2.3.4-1.7-.6-2.3-1.7-2.5-4.7-.4-4.5-2.1-9.4-3.4-9.4-.5 0-.9-1-.9-2.3 0-2.4-3.2-6.5-7-9-3.3-2.1-8.7-2.7-13-1.5zm126.4 215c.4-.3.6 0 .6.6 0 .7.9 1.2 1.9 1.2 1.1 0 2.3.5 2.6 1 .4.6 1.1.8 1.6.5.5-.4.9-.1.9.5s.4.9.9.6c.4-.3 1.8.3 3.1 1.4l2.2 1.9-3.8 1.7c-2.2.9-5.6 2.5-7.6 3.4-3.7 1.8-3.7 1.8-6.5-.6-1.5-1.3-3.1-2.4-3.4-2.4-.3 0-.6-1.2-.6-2.8-.1-1.5-.4-4.1-.6-5.9l-.5-3.2 4.3 1.4c2.4.7 4.6 1 4.9.7z"/><path d="M128.7 118.1c.7.7 1.5 1 1.8.7.3-.3-.2-.9-1.2-1.2-1.4-.6-1.5-.5-.6.5z"/></svg>